<?xml version="1.0" encoding="UTF-8"?>
<svg width="20px" height="20px" viewBox="0 0 20 20" version="1.1" xmlns="http://www.w3.org/2000/svg" xmlns:xlink="http://www.w3.org/1999/xlink">
    <!-- Generator: Sketch 52.3 (67297) - http://www.bohemiancoding.com/sketch -->
    <title>kefu</title>
    <desc>Created with Sketch.</desc>
    <g id="跳转注册页" stroke="none" stroke-width="1" fill="none" fill-rule="evenodd">
        <g id="站外营销注册页首页" transform="translate(-344.000000, -948.000000)" fill="#FFFFFF">
            <g id="Fill-32" transform="translate(344.000000, 948.000000)">
                <g id="Fill-2">
                    <path d="M18.5,10.9873418 C18.5,11.2343291 18.2939,11.443038 18.05,11.443038 C17.8061,11.443038 17.6,11.2343291 17.6,10.9873418 L17.6,8.60759494 C17.6,8.36060759 17.8061,8.15189873 18.05,8.15189873 C18.2939,8.15189873 18.5,8.36060759 18.5,8.60759494 L18.5,10.9873418 Z M2.4,10.9873418 C2.4,11.2343291 2.1939,11.443038 1.95,11.443038 C1.7061,11.443038 1.5,11.2343291 1.5,10.9873418 L1.5,8.60759494 C1.5,8.36060759 1.7061,8.15189873 1.95,8.15189873 C2.1939,8.15189873 2.4,8.36060759 2.4,8.60759494 L2.4,10.9873418 Z M18.5615,6.70420253 C17.9728,4.904 16.9743,3.34774684 15.6376,2.16465823 C14.0375,0.748556962 12.1053,0 10.05,0 C7.9947,0 6.0625,0.748556962 4.4624,2.16465823 C3.1327,3.34146835 2.138,4.88759494 1.548,6.6755443 C0.665,6.86379747 0,7.65832911 0,8.60759494 L0,10.9873418 C0,12.0761519 0.8748,12.9620253 1.95,12.9620253 C3.0252,12.9620253 3.9,12.0761519 3.9,10.9873418 L3.9,8.60759494 C3.9,7.92465823 3.5557,7.32182278 3.0337,6.96708861 C4.1949,3.6678481 6.909,1.51898734 10.05,1.51898734 C13.1749,1.51898734 15.8771,3.64607595 17.0481,6.91665823 C16.4813,7.26248101 16.1,7.89002532 16.1,8.60759494 L16.1,10.9873418 C16.1,11.4103291 16.2332,11.8017215 16.4577,12.123443 C15.6911,14.0832405 13.8694,16.0292658 12.4167,16.9674937 C12.1473,16.7735696 11.8194,16.6582278 11.4656,16.6582278 L8.4406,16.6582278 C7.5331,16.6582278 6.7906,17.4101266 6.7906,18.3291139 C6.7906,19.2481013 7.5331,20 8.4406,20 L11.4656,20 C12.3731,20 13.1156,19.2481013 13.1156,18.3291139 C13.1156,18.3250633 13.115,18.3212152 13.115,18.3172658 L13.1151,18.3174684 C14.7691,17.2852658 16.7865,15.1734684 17.7485,12.936 C17.8471,12.9514937 17.9473,12.9620253 18.05,12.9620253 C19.1252,12.9620253 20,12.0761519 20,10.9873418 L20,8.60759494 C20,7.69832911 19.3891,6.93255696 18.5615,6.70420253 Z" id="Fill-1"></path>
                </g>
            </g>
        </g>
    </g>
</svg>