<?xml version="1.0" encoding="UTF-8"?>
<svg width="16px" height="15px" viewBox="0 0 16 15" version="1.1" xmlns="http://www.w3.org/2000/svg" xmlns:xlink="http://www.w3.org/1999/xlink">
    <!-- Generator: Sketch 53.2 (72643) - https://sketchapp.com -->
    <title>icon/15+#285AC8/noticeblue</title>
    <desc>Created with Sketch.</desc>
    <g id="页面-1" stroke="none" stroke-width="1" fill="none" fill-rule="evenodd">
        <g id="一世免佣首页" transform="translate(-15.000000, -1600.000000)" fill="#FFFFFF">
            <g id="icon/15+#285AC8/noticeblue" transform="translate(16.000000, 1600.000000)">
                <g id="lefticon/message-2" transform="translate(0.000000, 1.000000)">
                    <g id="lefticon/message">
                        <path d="M9.80001,0.0992212766 L2.92321,3.75550496 L1e-05,3.75550496 L1e-05,10.3085972 L2.92321,10.3085972 L9.80001,13.9648809 L9.80001,0.0992212766 Z M1.00001,4.74831348 L3.14331,4.74831348 L8.80001,1.65272482 L8.80001,12.411278 L3.14331,9.31568936 L1.00001,9.31568936 L1.00001,4.74831348 Z" id="Fill-1"></path>
                        <polygon id="Fill-2" points="11.69287 9.40087092 13.81427 11.5072255 13.10717 12.2093106 10.98577 10.102956"></polygon>
                        <polygon id="Fill-3" points="11.9 7.55334752 14.9001 7.55334752 14.9001 6.56043972 11.9 6.56043972"></polygon>
                        <polygon id="Fill-4" points="10.98574 4.15968794 13.10714 2.05333333 13.81424 2.75541844 11.69284 4.86177305"></polygon>
                    </g>
                </g>
            </g>
        </g>
    </g>
</svg>