<?xml version="1.0" encoding="UTF-8"?>
<svg width="130px" height="120px" viewBox="0 0 130 120" version="1.1" xmlns="http://www.w3.org/2000/svg" xmlns:xlink="http://www.w3.org/1999/xlink">
    <!-- Generator: Sketch 52.3 (67297) - http://www.bohemiancoding.com/sketch -->
    <title>rujinjilu</title>
    <desc>Created with Sketch.</desc>
    <defs>
        <linearGradient x1="50%" y1="-49.5501818%" x2="50%" y2="78.5361003%" id="linearGradient-1">
            <stop stop-color="#ECF7FF" stop-opacity="0.150701993" offset="0%"></stop>
            <stop stop-color="#CBE3FF" offset="100%"></stop>
        </linearGradient>
        <linearGradient x1="56.6761606%" y1="-7.05963624%" x2="54.1966766%" y2="100%" id="linearGradient-2">
            <stop stop-color="#EFF7FF" offset="0%"></stop>
            <stop stop-color="#D9EAFD" offset="100%"></stop>
        </linearGradient>
        <polygon id="path-3" points="5.12698413 13 52.9206349 13 52.7538823 57.5625 45.5534728 65.3125 36.6591284 75 5.12698413 75"></polygon>
        <filter x="-12.6%" y="-9.7%" width="125.1%" height="119.4%" filterUnits="objectBoundingBox" id="filter-4">
            <feOffset dx="0" dy="0" in="SourceAlpha" result="shadowOffsetOuter1"></feOffset>
            <feGaussianBlur stdDeviation="2" in="shadowOffsetOuter1" result="shadowBlurOuter1"></feGaussianBlur>
            <feColorMatrix values="0 0 0 0 0.780392157   0 0 0 0 0.882352941   0 0 0 0 1  0 0 0 0.720108696 0" type="matrix" in="shadowBlurOuter1"></feColorMatrix>
        </filter>
        <linearGradient x1="50%" y1="-27.3556357%" x2="50%" y2="83.080263%" id="linearGradient-5">
            <stop stop-color="#F2F8FF" offset="0%"></stop>
            <stop stop-color="#E0EFFF" offset="100%"></stop>
        </linearGradient>
        <linearGradient x1="5.41430064%" y1="4.84350035%" x2="50%" y2="50%" id="linearGradient-6">
            <stop stop-color="#EBF5FF" offset="0%"></stop>
            <stop stop-color="#CAE2FF" offset="100%"></stop>
        </linearGradient>
    </defs>
    <g id="我的報價" stroke="none" stroke-width="1" fill="none" fill-rule="evenodd">
        <g id="暫無購買記錄" transform="translate(-126.000000, -183.000000)">
            <g id="rujinjilu" transform="translate(126.000000, 183.000000)">
                <g transform="translate(9.000000, 32.000000)">
                    <ellipse id="椭圆形-copy" fill="url(#linearGradient-1)" opacity="0.296345" cx="54" cy="78" rx="40" ry="10"></ellipse>
                    <g id="分组" transform="translate(26.000000, 0.000000)">
                        <rect id="矩形" fill="url(#linearGradient-2)" x="0.0476190476" y="8.18638269" width="58" height="72" rx="4"></rect>
                        <g id="矩形">
                            <use fill="black" fill-opacity="1" filter="url(#filter-4)" xlink:href="#path-3"></use>
                            <use fill="#FFFFFF" fill-rule="evenodd" xlink:href="#path-3"></use>
                        </g>
                        <rect id="矩形" fill="#D2E7FF" opacity="0.401278" x="10.1904762" y="23" width="38.7732068" height="2"></rect>
                        <rect id="矩形" fill="#D2E7FF" opacity="0.401278" x="10.1904762" y="33" width="38.7732068" height="2"></rect>
                        <rect id="矩形" fill="#D2E7FF" opacity="0.401278" x="10.1904762" y="43" width="38.7732068" height="2"></rect>
                        <rect id="矩形" fill="#D2E7FF" opacity="0.401278" x="10.1904762" y="53" width="21.2329466" height="2"></rect>
                        <g id="分组-2" transform="translate(14.000000, 0.000000)">
                            <path d="M9,6 C9,2.6862915 11.6862915,-1.42108547e-14 15,-1.42108547e-14 C18.3137085,-1.42108547e-14 21,2.6862915 21,6 L26,6 C28.209139,6 30,7.790861 30,10 L30,16 L-3.55271368e-15,16 L-3.55271368e-15,10 C-3.82325518e-15,7.790861 1.790861,6 4,6 L9,6 Z" id="合并形状" fill="url(#linearGradient-5)"></path>
                            <circle id="椭圆形" fill="#C4DFFF" cx="15" cy="6" r="2"></circle>
                        </g>
                        <polygon id="路径" fill="url(#linearGradient-6)" opacity="0.94" points="36.5374379 75.1189168 52.784211 57.5551063 36.5374379 57.5551063"></polygon>
                    </g>
                    <g id="分组-3" transform="translate(99.000000, 71.000000)">
                        <path d="M1,4.97750334 L0.899475814,1.66959941 L10.8728919,1.55049971 L10.9978475,4.91946814 C10.9992792,4.93422969 11,4.94904472 11,4.96391026 C11,4.96738399 10.9999606,4.97085497 10.999882,4.97432315 L11,4.97750334 C10.9754713,5.79967117 8.74630455,6.46391026 6,6.46391026 C3.25369545,6.46391026 1.02452874,5.79967117 1.00020104,4.97750334 Z" id="合并形状" fill="#E9F3FF"></path>
                        <path d="M6,3 C8.76142375,3 10.8728919,2.32842712 10.8728919,1.5 C10.8728919,0.671572875 8.76142375,-8.8817842e-16 6,-8.8817842e-16 C3.23857625,-8.8817842e-16 0.882726345,0.671572875 0.882726345,1.5 C0.882726345,2.32842712 3.23857625,3 6,3 Z" id="椭圆形" fill="#F0F7FF"></path>
                        <path d="M5.91810396,2.3158955 C8.12724296,2.3158955 9.96739094,1.88016949 9.96739094,1.51579948 C9.96739094,1.15142947 8.12724296,0.715703454 5.91810396,0.715703454 C3.70896496,0.715703454 1.88666477,1.10147468 1.88666477,1.48775785 C1.88666477,1.87404102 3.70896496,2.3158955 5.91810396,2.3158955 Z" id="椭圆形" stroke="#FFFFFF" stroke-width="0.2" fill="#E9F3FF"></path>
                    </g>
                    <g id="分组-3" transform="translate(0.000000, 64.000000)">
                        <path d="M1,4.97750334 L0.899475814,1.66959941 L10.8728919,1.55049971 L10.9978475,4.91946814 C10.9992792,4.93422969 11,4.94904472 11,4.96391026 C11,4.96738399 10.9999606,4.97085497 10.999882,4.97432315 L11,4.97750334 C10.9754713,5.79967117 8.74630455,6.46391026 6,6.46391026 C3.25369545,6.46391026 1.02452874,5.79967117 1.00020104,4.97750334 Z" id="合并形状" fill="#E9F3FF"></path>
                        <path d="M6,3 C8.76142375,3 10.8728919,2.32842712 10.8728919,1.5 C10.8728919,0.671572875 8.76142375,-8.8817842e-16 6,-8.8817842e-16 C3.23857625,-8.8817842e-16 0.882726345,0.671572875 0.882726345,1.5 C0.882726345,2.32842712 3.23857625,3 6,3 Z" id="椭圆形" fill="#F0F7FF"></path>
                        <path d="M5.91810396,2.3158955 C8.12724296,2.3158955 9.96739094,1.88016949 9.96739094,1.51579948 C9.96739094,1.15142947 8.12724296,0.715703454 5.91810396,0.715703454 C3.70896496,0.715703454 1.88666477,1.10147468 1.88666477,1.48775785 C1.88666477,1.87404102 3.70896496,2.3158955 5.91810396,2.3158955 Z" id="椭圆形" stroke="#FFFFFF" stroke-width="0.2" fill="#E9F3FF"></path>
                    </g>
                </g>
            </g>
        </g>
    </g>
</svg>