<?xml version="1.0" encoding="UTF-8"?>
<svg width="20px" height="20px" viewBox="0 0 20 20" version="1.1" xmlns="http://www.w3.org/2000/svg" xmlns:xlink="http://www.w3.org/1999/xlink">
    <!-- Generator: Sketch 52.3 (67297) - http://www.bohemiancoding.com/sketch -->
    <title>friend</title>
    <desc>Created with Sketch.</desc>
    <g id="Page-1" stroke="none" stroke-width="1" fill="none" fill-rule="evenodd">
        <g id="邀请记录" transform="translate(-24.000000, -170.000000)">
            <g id="分组-3" transform="translate(24.000000, 170.000000)">
                <g id="friend">
                    <g id="tianchongxing-" transform="translate(0.011574, 2.000000)">
                        <path d="M12.3081323,9.2797379 C12.3081322,9.59275047 12.469254,9.88198601 12.7308045,10.0384923 C12.992355,10.1949986 13.3145984,10.1949986 13.5761489,10.0384923 C13.8376994,9.88198601 13.9988211,9.59275047 13.9988211,9.2797379 C13.9988211,8.96672534 13.8376994,8.67748979 13.5761489,8.52098351 C13.3145984,8.36447722 12.992355,8.36447722 12.7308045,8.52098351 C12.469254,8.67748979 12.3081322,8.96672534 12.3081323,9.2797379 Z" id="路径" fill="#FF7219"></path>
                        <path d="M11.8885603,0.882560484 C11.8885603,1.19557305 12.0496821,1.48480859 12.3112325,1.64131488 C12.572783,1.79782116 12.8950265,1.79782116 13.156577,1.64131488 C13.4181275,1.48480859 13.5792492,1.19557305 13.5792492,0.882560484 C13.5792492,0.569547919 13.4181275,0.280312375 13.156577,0.123806089 C12.8950265,-0.0327001972 12.572783,-0.0327001972 12.3112325,0.123806089 C12.0496821,0.280312375 11.8885603,0.569547919 11.8885603,0.882560484 Z" id="路径" fill="#FF7219"></path>
                        <path d="M19.8831624,15.9931956 C19.8831624,12.9149446 18.1201336,10.2629788 15.5841003,9.06123992 C16.7167378,8.13155242 17.4442714,6.69203629 17.4442714,5.07900706 C17.4442714,2.34135585 15.3526123,0.109248992 12.7339048,0.00642641129 L12.7339048,1.75869456 C14.4080588,1.859375 15.7349808,3.3203125 15.7349808,5.07900706 C15.7349808,6.76701109 14.5754742,8.22152218 13.0005293,8.42288306 C12.8847853,8.43787802 12.7339048,8.58140121 12.7339048,8.70136089 L12.7339048,9.99949597 C12.7339048,9.57106855 12.7979773,9.98664315 12.8827185,9.99306956 L12.9860613,10.1430192 C15.9478671,10.3293851 18.1904067,12.8763861 18.1904067,15.9931956 L18.1924736,15.9931956 L18.1924736,16.0103327 C18.1924736,16.4944556 18.5707084,16.8864667 19.037818,16.8864667 C19.5049276,16.8864667 19.8831624,16.4944556 19.8831624,16.0103327 L19.8831624,15.9931956 Z" id="路径" fill="#FF7219"></path>
                        <path d="M2.7509864,5.07043851 C2.7509864,7.83172307 4.91078437,10.0701865 7.57503018,10.0701865 C10.239276,10.0701865 12.399074,7.83172307 12.399074,5.07043851 C12.399074,2.30915394 10.239276,0.0706905242 7.57503018,0.0706905242 C4.91078437,0.0706905242 2.7509864,2.30915394 2.7509864,5.07043851 Z" id="路径" fill="#FFC020"></path>
                        <path d="M15.1479935,16.1495716 C15.1459267,16.1110131 15.1438598,16.0724546 15.1376592,16.0360383 C14.7242879,12.0859375 11.4958575,9.00982863 7.57503018,9.00982863 C3.64800226,9.00982863 0.417505074,12.0923639 0.010334284,16.0510333 C0.00620057041,16.078881 0.00413371361,16.1067288 0.0020668568,16.1367187 C0.0020668568,16.141003 0.0020668568,16.1452873 0,16.1517137 L0,16.1752772 C0,16.6058468 0.336897659,16.9550151 0.752335876,16.9550151 L14.3977245,16.9550151 C14.8131627,16.9550151 15.1500604,16.6058468 15.1500604,16.1752772 C15.1500604,16.1645665 15.1479935,16.1581401 15.1479935,16.1495716 Z" id="路径" fill="#FFC020"></path>
                    </g>
                </g>
            </g>
        </g>
    </g>
</svg>