<?xml version="1.0" encoding="UTF-8"?>
<svg width="20px" height="20px" viewBox="0 0 20 20" version="1.1" xmlns="http://www.w3.org/2000/svg" xmlns:xlink="http://www.w3.org/1999/xlink">
    <!-- Generator: Sketch 52.3 (67297) - http://www.bohemiancoding.com/sketch -->
    <title>naozhong 2</title>
    <desc>Created with Sketch.</desc>
    <g id="Page-1" stroke="none" stroke-width="1" fill="none" fill-rule="evenodd">
        <g id="邀请记录" transform="translate(-139.000000, -171.000000)">
            <g id="分组-2" transform="translate(139.000000, 171.000000)">
                <g id="naozhong-2">
                    <g id="naozhong" transform="translate(2.000000, 1.000000)">
                        <path d="M11.5555556,1.79900056 L11.5555556,0.674625208 C11.5555556,0.674625208 11.5073595,0 10.7384131,0 L5.36126515,0 C4.59450948,0 4.44444444,0.674625208 4.44444444,0.674625208 L4.44444444,1.79900056 C5.62962963,1.31127152 6.75566509,1.03042754 8,1.03042754 C9.24433491,1.03042754 10.3703704,1.31127152 11.5555556,1.8" id="路径" fill="#FFC020"></path>
                        <ellipse id="椭圆形" fill="#FF7219" cx="8.88888889" cy="9.45" rx="4.44444444" ry="4.95"></ellipse>
                        <path d="M7.99942951,1.8 C3.58154461,1.8 0,5.42613636 0,9.9 C0,14.375 3.58268559,18 7.99942951,18 C12.4184554,18 16,14.3738636 16,9.9 C16,5.42613636 12.4173144,1.8 7.99942951,1.8 Z M8.36112102,10.2840909 C8.36112102,10.3943182 8.31776367,10.5 8.24131783,10.5784091 L6.21949654,12.625 C6.14319712,12.7034576 6.03821516,12.747748 5.92854596,12.747748 C5.81887676,12.747748 5.7138948,12.7034576 5.63759538,12.625 C5.47669073,12.461509 5.47669073,12.1998547 5.63759538,12.0363636 L7.53733153,10.1113636 L7.53733153,5.44545455 C7.53733153,5.21477273 7.72102974,5.02840909 7.94808529,5.02840909 C8.17628182,5.02840909 8.36112102,5.21477273 8.36112102,5.44545455 L8.36112102,10.2829545 L8.36112102,10.2840909 Z" id="形状" fill="#FFC020" fill-rule="nonzero"></path>
                        <path d="M8,10.0402848 L8,5.094" id="路径-2" stroke="#FF7219" stroke-width="1.33333333" stroke-linecap="round"></path>
                        <path d="M8,10.0402848 L5.77777778,12.15" id="路径-2" stroke="#FF7219" stroke-width="1.33333333" stroke-linecap="round"></path>
                    </g>
                </g>
            </g>
        </g>
    </g>
</svg>