<?xml version="1.0" encoding="UTF-8"?>
<svg width="20px" height="20px" viewBox="0 0 20 20" version="1.1" xmlns="http://www.w3.org/2000/svg" xmlns:xlink="http://www.w3.org/1999/xlink">
    <!-- Generator: Sketch 52.3 (67297) - http://www.bohemiancoding.com/sketch -->
    <title>liwu 2</title>
    <desc>Created with Sketch.</desc>
    <g id="Page-1" stroke="none" stroke-width="1" fill="none" fill-rule="evenodd">
        <g id="邀请记录" transform="translate(-266.000000, -170.000000)">
            <g id="分组-4" transform="translate(266.000000, 170.000000)">
                <g id="liwu-2">
                    <g id="liwu" transform="translate(1.000000, 2.000000)">
                        <g id="分组">
                            <path d="M15.1691576,16.9916038 L2.78804348,16.9916038 C2.02759851,16.9916038 1.41236413,16.3771552 1.41236413,15.6176814 L1.41236413,6.6871857 L16.544837,6.6871857 L16.544837,15.6176814 C16.544837,16.3771552 15.9296026,16.9916038 15.1691576,16.9916038 Z" id="路径" fill="#FFC020"></path>
                            <path d="M14.4813179,4.28282148 L8.97860054,4.28282148 C8.69964334,4.28282148 8.45125679,4.11489763 8.34425951,3.8591954 C8.23726223,3.60349318 8.29840353,3.30580999 8.49329144,3.11117098 L11.2446501,0.363326149 C11.3745754,0.23356681 11.5503567,0.161054239 11.7299592,0.161054239 C13.6253397,0.161054239 15.1691576,1.7029005 15.1691576,3.59586027 C15.1691576,3.97368894 14.8596298,4.28282148 14.4813179,4.28282148 Z M10.6408798,2.90889907 L13.6788383,2.90889907 C13.4228091,2.19140625 12.7808254,1.65328664 12.0012738,1.55024246 L10.6408798,2.90889907 Z" id="形状" fill="#FF841A" fill-rule="nonzero"></path>
                            <path d="M8.97860054,4.28282148 L3.47588315,4.28282148 C3.09757133,4.28282148 2.78804348,3.97368894 2.78804348,3.59586027 C2.78804348,1.7029005 4.33186141,0.161054239 6.22724185,0.161054239 C6.41066576,0.161054239 6.58644701,0.23356681 6.71255095,0.363326149 L9.46390965,3.11117098 C9.66261889,3.30962644 9.71993886,3.60349318 9.61294158,3.8591954 C9.50594429,4.11489763 9.25755774,4.28282148 8.97860054,4.28282148 Z M4.2821841,2.90889907 L7.32014266,2.90889907 L5.95974864,1.55024246 C5.18019701,1.65328664 4.53821332,2.19140625 4.2821841,2.90889907 Z" id="形状" fill="#FF841A" fill-rule="nonzero"></path>
                            <path d="M17.5765965,7.03066631 L0.38060462,7.03066631 C0.189538043,7.03066631 0.0366847826,6.87800826 0.0366847826,6.6871857 L0.0366847826,4.62630208 C0.0366847826,4.24847342 0.346212636,3.93934088 0.724524457,3.93934088 L17.2326766,3.93934088 C17.6109885,3.93934088 17.9205163,4.24847342 17.9205163,4.62630208 L17.9205163,6.6871857 C17.9205163,6.87800826 17.767663,7.03066631 17.5765965,7.03066631 Z" id="路径" fill="#FFAF20"></path>
                            <polygon id="路径" fill="#FF7219" opacity="0.620605469" points="7.6029212 7.03066631 10.3542799 7.03066631 10.3542799 16.9916038 7.6029212 16.9916038"></polygon>
                            <polygon id="路径" fill="#FF7219" opacity="0.765718006" points="7.6029212 3.93934088 10.3542799 3.93934088 10.3542799 7.03066631 7.6029212 7.03066631"></polygon>
                        </g>
                    </g>
                </g>
            </g>
        </g>
    </g>
</svg>