<?xml version="1.0" encoding="UTF-8"?>
<svg width="22px" height="18px" viewBox="0 0 22 18" version="1.1" xmlns="http://www.w3.org/2000/svg" xmlns:xlink="http://www.w3.org/1999/xlink">
    <!-- Generator: Sketch 55.1 (78136) - https://sketchapp.com -->
    <title>Group 3 Copy 5</title>
    <desc>Created with Sketch.</desc>
    <defs>
        <polygon id="path-1" points="0 0 22 0 22 18 0 18"></polygon>
    </defs>
    <g id="MGM-v3" stroke="none" stroke-width="1" fill="none" fill-rule="evenodd">
        <g id="MGM---主頁面" transform="translate(-262.000000, -1504.000000)">
            <g id="Group-9" transform="translate(0.000000, 1487.000000)">
                <g id="Group-17" transform="translate(245.000000, 2.000000)">
                    <g id="Group-3-Copy-5" transform="translate(17.000000, 15.000000)">
                        <mask id="mask-2" fill="white">
                            <use xlink:href="#path-1"></use>
                        </mask>
                        <g id="Clip-2"></g>
                        <path d="M13.1806016,6.88242244 C13.0780597,6.97562683 12.9715535,7.06174244 12.8642545,7.13788124 C12.7445341,7.22242156 12.6200567,7.29882291 12.4950507,7.3649849 C12.1649608,7.53905395 11.9741483,7.89034262 12.0079766,8.26000963 C12.0418048,8.62941408 12.2939311,8.94027042 12.6496564,9.05237824 C13.0032675,9.16343587 13.3603143,9.32070188 13.7107539,9.5194504 C13.8590169,9.60320308 14.0004084,9.69141907 14.1304358,9.78147289 C15.6535006,10.8337636 16.5631637,12.5397978 16.5631637,14.3448125 L16.5631637,16.6872621 L5.39613666,16.6872621 L5.39613666,14.3448125 C5.39613666,12.5334967 6.31029263,10.8245745 7.84155014,9.77254627 C7.97263466,9.68249245 8.11508337,9.59401392 8.26493201,9.50973614 C8.60982173,9.31571347 8.96105425,9.16186059 9.30832252,9.05237824 C9.66404786,8.94027042 9.91590986,8.62941408 9.9500024,8.26000963 C9.98383067,7.89086772 9.79301812,7.53957905 9.46345683,7.36524745 C9.35245783,7.30643679 9.24119456,7.23817442 9.12385277,7.15730976 C9.01338235,7.08064587 8.9063476,6.995843 8.80486281,6.90526408 C8.12380472,6.29667877 7.73345827,5.43289721 7.73345827,4.53577211 C7.73345827,4.1941977 7.78975061,3.85314838 7.90048532,3.52207588 C7.94092067,3.40235418 7.99007736,3.28236993 8.05112681,3.15555945 C8.58920763,2.03605654 9.73910432,1.31273793 10.980443,1.31273793 C12.2299745,1.31273793 13.3835712,2.04235768 13.9184806,3.1713123 C13.9808515,3.30284864 14.0300082,3.42440817 14.0688578,3.54255459 C14.1750997,3.86653831 14.2287492,4.20049884 14.2287492,4.53577211 C14.2287492,5.42082002 13.8468598,6.27593751 13.1806016,6.88242244 M4.4452453,9.71347307 C4.76740666,9.61239225 4.99548316,9.33120378 5.02640431,8.99645561 C5.05706117,8.66249508 4.88421988,8.34507504 4.58637259,8.18728395 C3.71899476,7.72835076 3.18012109,6.84750361 3.18012109,5.88841728 C3.18012109,4.444143 4.36384604,3.26924255 5.81898996,3.26924255 C6.07058767,3.26924255 6.3219211,3.3070494 6.56849743,3.38161292 C6.46463409,3.76624513 6.41204171,4.15324027 6.41204171,4.53577211 C6.41204171,5.84457183 6.99161501,7.08930994 8.00197011,7.95072857 C8.05561962,7.9966744 8.11032627,8.04157003 8.16582577,8.08462784 C7.94065638,8.1864963 7.71839412,8.3007045 7.50221037,8.42725244 C7.44671087,8.45980834 7.39173995,8.49315188 7.33888328,8.52623288 L7.23501994,8.59397016 C7.10314257,8.67903558 6.9744366,8.76777666 6.84943059,8.86098105 C5.1120321,10.1584912 4.0747201,12.2082002 4.0747201,14.3448125 L4.0747201,15.94504 L1.23314593,15.94504 L1.23314593,14.0594233 C1.23314593,12.0960924 2.55429821,10.3091935 4.4452453,9.71347307 M15.1378838,8.8832976 C15.012085,8.78825537 14.8775647,8.69400079 14.738816,8.60420951 C14.4340974,8.40598608 14.1174859,8.23244213 13.7924175,8.08541548 C13.8561097,8.03605654 13.919802,7.98328447 13.9845514,7.92709929 C14.9795781,7.06620575 15.5501658,5.83039426 15.5501658,4.53577211 C15.5501658,4.15822868 15.4986305,3.77517175 15.3966172,3.39395265 C15.6550863,3.31098762 15.9185767,3.26924255 16.1823315,3.26924255 C17.6380039,3.26924255 18.8222575,4.444143 18.8222575,5.88841728 C18.8222575,6.84724106 18.2823267,7.72808822 17.4125703,8.1870214 C17.114723,8.34454995 16.9418817,8.66249508 16.9725386,8.9969807 C17.0034597,9.33120378 17.2312719,9.61239225 17.553169,9.71321052 C19.4451732,10.308931 20.7668541,12.0958299 20.7668541,14.0594233 L20.7668541,15.94504 L17.8845803,15.94504 L17.8845803,14.3448125 C17.8845803,12.1906095 16.8834751,10.2002363 15.1378838,8.8832976 M18.6552304,8.82842515 C19.5397867,8.10353127 20.0554034,7.03548768 20.0554034,5.88841728 C20.0554034,3.76887061 18.3177406,2.04419551 16.1823315,2.04419551 C15.7573639,2.04419551 15.3350392,2.1163961 14.9243429,2.25895944 C14.111936,0.879534416 12.5893998,0 10.980443,0 C9.34902215,0 7.86084282,0.85511749 7.04288597,2.2466197 C6.64302532,2.11219534 6.23232906,2.04419551 5.81898996,2.04419551 C3.6835808,2.04419551 1.94671087,3.76887061 1.94671087,5.88841728 C1.94671087,7.03522513 2.46153477,8.10300617 3.34450531,8.8281626 C1.29763106,9.77858487 0,11.7839233 0,14.0594233 L0,17.1700871 L4.0747201,17.1700871 L4.0747201,18 L17.8845803,18 L17.8845803,17.1700871 L22,17.1700871 L22,14.0594233 C22,11.7841859 20.7021047,9.77884742 18.6552304,8.82842515" id="Fill-1" fill="#FFFFFF" mask="url(#mask-2)"></path>
                    </g>
                </g>
            </g>
        </g>
    </g>
</svg>