<?xml version="1.0" encoding="UTF-8"?>
<svg width="16px" height="18px" viewBox="0 0 16 18" version="1.1" xmlns="http://www.w3.org/2000/svg" xmlns:xlink="http://www.w3.org/1999/xlink">
    <!-- Generator: Sketch 55.1 (78136) - https://sketchapp.com -->
    <title>Group 6</title>
    <desc>Created with Sketch.</desc>
    <defs>
        <polygon id="path-1" points="2.54843517e-05 0.0464347826 15.4965501 0.0464347826 15.4965501 17.8263913 2.54843517e-05 17.8263913"></polygon>
    </defs>
    <g id="MGM-v3" stroke="none" stroke-width="1" fill="none" fill-rule="evenodd">
        <g id="MGM---主頁面" transform="translate(-132.000000, -1505.000000)">
            <g id="Group-9" transform="translate(0.000000, 1487.000000)">
                <g id="Group-6" transform="translate(132.000000, 18.000000)">
                    <mask id="mask-2" fill="white">
                        <use xlink:href="#path-1"></use>
                    </mask>
                    <g id="Clip-5"></g>
                    <path d="M10.5426469,3.50543478 C10.5232788,3.38491304 10.5138496,3.27978261 10.5138496,3.18378261 C10.5138496,2.10091304 11.3742013,1.22021739 12.4315471,1.22021739 C13.4894025,1.22021739 14.3497542,2.10091304 14.3497542,3.18378261 C14.3497542,4.2663913 13.4894025,5.14708696 12.4315471,5.14708696 C12.0077423,5.14708696 11.6050896,5.00621739 11.2671671,4.73986957 L10.785258,4.36004348 L4.8560687,8.00230435 L4.95418346,8.61456522 C4.97355156,8.73534783 4.98323562,8.84047826 4.98323562,8.93647826 C4.98323562,9.03091304 4.97355156,9.13682609 4.95392861,9.25995652 L4.85632355,9.87143478 L10.7847483,13.5123913 L11.2664025,13.1336087 C11.6055993,12.867 12.0085069,12.7258696 12.4315471,12.7258696 C13.4894025,12.7258696 14.3497542,13.6065652 14.3497542,14.6891739 C14.3497542,15.7717826 13.4894025,16.6524783 12.4315471,16.6524783 C11.3742013,16.6524783 10.5138496,15.7717826 10.5138496,14.6891739 C10.5138496,14.5931739 10.5232788,14.4880435 10.5426469,14.3677826 L10.6420359,13.7547391 L4.71182727,10.1132609 L4.23017303,10.4920435 C3.89148599,10.758913 3.48857839,10.8997826 3.06502846,10.8997826 C2.00742787,10.8997826 1.14682131,10.019087 1.14682131,8.93647826 C1.14682131,7.85386957 2.00742787,6.97317391 3.06502846,6.97317391 C3.48857839,6.97317391 3.89148599,7.11404348 4.23017303,7.3803913 L4.71182727,7.75969565 L10.6420359,4.11821739 L10.5426469,3.50543478 Z M4.78700611,11.5284783 L9.38693159,14.352913 C9.37342489,14.4692609 9.3670538,14.5806522 9.3670538,14.6891739 C9.3670538,16.4192609 10.7416797,17.8263913 12.4315471,17.8263913 C14.1216693,17.8263913 15.4965501,16.4192609 15.4965501,14.6891739 C15.4965501,12.959087 14.1216693,11.5519565 12.4315471,11.5519565 C11.8117677,11.5519565 11.220021,11.7397826 10.7095694,12.0974348 L6.10989881,9.27247826 C6.12340551,9.15482609 6.13003145,9.04395652 6.13003145,8.93647826 C6.13003145,8.829 6.12340551,8.71786957 6.11015365,8.601 L10.7093146,5.77552174 C11.2192565,6.13291304 11.8110031,6.321 12.4315471,6.321 C14.1216693,6.321 15.4965501,4.9136087 15.4965501,3.18378261 C15.4965501,1.45369565 14.1216693,0.0463043478 12.4315471,0.0463043478 C10.7416797,0.0463043478 9.3670538,1.45369565 9.3670538,3.18378261 C9.3670538,3.29230435 9.37342489,3.40343478 9.38693159,3.52004348 L4.78700611,6.34447826 C4.27706423,5.98734783 3.68557243,5.79926087 3.06502846,5.79926087 C1.37490626,5.79926087 2.54843517e-05,7.20665217 2.54843517e-05,8.93647826 C2.54843517e-05,10.6663043 1.37490626,12.0736957 3.06502846,12.0736957 C3.68557243,12.0736957 4.27706423,11.8856087 4.78700611,11.5284783 L4.78700611,11.5284783 Z" id="Fill-4" fill="#FFFFFF" mask="url(#mask-2)"></path>
                </g>
            </g>
        </g>
    </g>
</svg>