<?xml version="1.0" encoding="UTF-8"?>
<svg width="18px" height="18px" viewBox="0 0 18 18" version="1.1" xmlns="http://www.w3.org/2000/svg" xmlns:xlink="http://www.w3.org/1999/xlink">
    <!-- Generator: Sketch 53.2 (72643) - https://sketchapp.com -->
    <title>online_icon</title>
    <desc>Created with Sketch.</desc>
    <defs>
        <polygon id="path-1" points="0 1.79104478e-05 11.9610627 1.79104478e-05 11.9610627 11.9471821 0 11.9471821"></polygon>
    </defs>
    <g id="開戶交付开发" stroke="none" stroke-width="1" fill="none" fill-rule="evenodd">
        <g id="開戶結果-資料已提交" transform="translate(-18.000000, -267.000000)">
            <g id="online_icon" transform="translate(18.000000, 267.000000)">
                <g>
                    <circle id="Oval-Copy-6" fill="#0121DC" cx="9" cy="9" r="9"></circle>
                    <g id="Group-3" transform="translate(3.000000, 3.000000)">
                        <mask id="mask-2" fill="white">
                            <use xlink:href="#path-1"></use>
                        </mask>
                        <g id="Clip-2"></g>
                        <path d="M11.3261373,5.96749254 C11.3232716,6.58038806 10.1555104,7.24271642 8.3057194,7.55668657 C8.36195821,7.03298507 8.3895403,6.49656716 8.3895403,5.96749254 C8.3895403,5.43662687 8.36195821,4.8980597 8.3057194,4.37650746 C10.1576597,4.69101493 11.3232716,5.35280597 11.3261373,5.96570149 L11.3261373,5.96749254 Z M7.21604776,11.1656418 C7.69676418,10.480209 8.03527164,9.40808955 8.21974925,8.20880597 C9.41921194,8.02146269 10.4940179,7.68277612 11.179809,7.20474627 C10.7137791,9.15967164 9.17079403,10.7005075 7.21604776,11.1656418 L7.21604776,11.1656418 Z M5.97861493,11.3123284 C5.36679403,11.3123284 4.70428657,10.144209 4.38780896,8.29459701 C4.91186866,8.34797015 5.44774925,8.37823881 5.97861493,8.37823881 C6.51055522,8.37823881 7.04912239,8.34797015 7.5694209,8.29459701 C7.25616716,10.144209 6.59151045,11.3123284 5.97861493,11.3123284 L5.97861493,11.3123284 Z M0.778674627,7.20474627 C1.46697313,7.68277612 2.53909254,8.02146269 3.73801791,8.20880597 C3.92518209,9.40808955 4.2617194,10.480209 4.74243582,11.1656418 C2.78751045,10.7005075 1.24398806,9.15967164 0.778674627,7.20474627 L0.778674627,7.20474627 Z M3.65258507,4.37650746 C3.59634627,4.8980597 3.56876418,5.43662687 3.56876418,5.96749254 C3.56876418,6.49656716 3.59634627,7.03531343 3.65258507,7.55668657 C1.80064478,7.24271642 0.634316418,6.57752239 0.634316418,5.96749254 C0.634316418,5.35280597 1.80064478,4.69101493 3.65258507,4.37650746 L3.65258507,4.37650746 Z M4.58983881,0.806597015 C4.64052537,0.792268657 4.69121194,0.779552239 4.74243582,0.767552239 C4.6894209,0.84241791 4.63891343,0.922298507 4.58983881,1.00647761 C4.1895403,1.68922388 3.90476418,2.65692537 3.73801791,3.72474627 C2.53909254,3.91173134 1.46697313,4.25041791 0.778674627,4.73077612 C1.23180896,2.82474627 2.70762985,1.31149254 4.58983881,0.806597015 L4.58983881,0.806597015 Z M5.97861493,0.620865672 C6.19658507,0.620865672 6.42136119,0.769164179 6.63503284,1.04337313 C7.02046567,1.53841791 7.36792836,2.44647761 7.5694209,3.63859701 C7.04625672,3.58522388 6.51055522,3.55495522 5.97861493,3.55495522 C5.44774925,3.55495522 4.91186866,3.58522388 4.38780896,3.63859701 C4.59145075,2.44647761 4.93891343,1.53841791 5.32327164,1.04337313 C5.53640597,0.769164179 5.76046567,0.620865672 5.97861493,0.620865672 L5.97861493,0.620865672 Z M7.75676418,5.96749254 C7.75676418,6.56444776 7.72488358,7.12880597 7.66362985,7.6498209 C7.14225672,7.71071642 6.57825672,7.74385075 5.97861493,7.74385075 C5.3816597,7.74385075 4.81783881,7.71071642 4.29736119,7.6498209 C4.23628657,7.12880597 4.20315224,6.56444776 4.20315224,5.96749254 C4.20315224,5.36892537 4.23628657,4.80456716 4.29736119,4.28355224 C4.81783881,4.22247761 5.3816597,4.18934328 5.97861493,4.18934328 C6.57825672,4.18934328 7.14225672,4.22247761 7.66362985,4.28355224 C7.72488358,4.80456716 7.75676418,5.36892537 7.75676418,5.96749254 L7.75676418,5.96749254 Z M7.53592836,0.85441791 C9.3375403,1.40408955 10.7397493,2.88152239 11.179809,4.72844776 C10.4940179,4.24773134 9.41921194,3.91173134 8.21974925,3.72474627 C8.05855522,2.67555224 7.77933134,1.72414925 7.39049552,1.04337313 C7.33425672,0.945940299 7.27658507,0.853343284 7.21604776,0.767552239 C7.32386866,0.793343284 7.43061493,0.822 7.53592836,0.85441791 L7.53592836,0.85441791 Z M7.53592836,0.198716418 C7.29091343,0.132089552 7.03962985,0.0814029851 6.78368955,0.0466567164 L6.78082388,0.037880597 C5.71157015,-0.0871343284 4.68136119,0.135671642 4.59592836,0.154835821 C4.59395821,0.155373134 4.59180896,0.155910448 4.58983881,0.156268657 C1.9614806,0.785641791 -7.1641791e-05,3.14856716 -7.1641791e-05,5.96749254 C-7.1641791e-05,9.26319403 2.68345075,11.9472537 5.98130149,11.9472537 C9.27718209,11.9472537 11.958197,9.2658806 11.9610627,5.97035821 L11.9610627,5.96570149 C11.958197,3.20641791 10.0788537,0.884149254 7.53592836,0.198716418 L7.53592836,0.198716418 Z" id="Fill-1" fill="#FFFFFF" mask="url(#mask-2)"></path>
                    </g>
                </g>
            </g>
        </g>
    </g>
</svg>