<?xml version="1.0" encoding="UTF-8"?>
<svg width="21px" height="15px" viewBox="0 0 21 15" version="1.1" xmlns="http://www.w3.org/2000/svg" xmlns:xlink="http://www.w3.org/1999/xlink">
    <!-- Generator: Sketch 52.6 (67491) - http://www.bohemiancoding.com/sketch -->
    <title>megaphone</title>
    <desc>Created with Sketch.</desc>
    <g id="迎新推廣活動" stroke="none" stroke-width="1" fill="none" fill-rule="evenodd">
        <g id="拉新活動首頁" transform="translate(-24.000000, -482.000000)" fill="#FFFFFF" fill-rule="nonzero">
            <g id="megaphone" transform="translate(24.000000, 482.000000)">
                <path d="M14.9979606,4.10276034 L14.9979606,0.497566397 C14.9979606,0.309753349 14.8935471,0.142354763 14.7223089,0.056614024 C14.5552472,-0.0291267152 14.3505967,-0.0168780382 14.1918881,0.0892771627 C10.5248847,2.56759282 8.41990773,2.88605842 6.99570706,2.88605842 L2.92357907,2.88605842 C1.31143404,2.88605842 0,4.16808661 0,5.74408306 L0,6.80563507 C0,8.38163151 1.31143404,9.66365971 2.92357907,9.66365971 L4.87820051,9.66365971 L6.99988361,14.6897002 C7.07923789,14.8815961 7.2713588,15 7.4718328,15 C7.53865746,15 7.60130559,14.9877513 7.66813025,14.963254 C7.93125237,14.8570988 8.05237207,14.5672134 7.94795853,14.3099912 L5.98498401,9.66365971 L6.99153052,9.66365971 C11.9532619,9.66365971 13.983061,12.231799 14.074945,12.3502029 C14.175182,12.4808554 14.3255374,12.5543475 14.484246,12.5543475 C14.5385411,12.5543475 14.5928361,12.5461817 14.6429546,12.5298501 C14.8517817,12.460441 14.9937841,12.2726279 14.9937841,12.0562346 L14.9937841,8.45512357 C16.0086837,8.2264816 16.7646377,7.34049396 16.7646377,6.27894195 C16.7729908,5.21738995 16.0128602,4.32731941 14.9979606,4.10276034 Z M1.02325267,6.80563507 L1.02325267,5.74408306 C1.02325267,4.71927708 1.87526715,3.88636704 2.92357907,3.88636704 L4.71113885,3.88636704 L4.71113885,8.66335108 L2.92357907,8.66335108 C1.87526715,8.66335108 1.02325267,7.83044105 1.02325267,6.80563507 Z M13.974708,10.8517814 C12.8386887,9.93721349 10.6084155,8.66335108 6.99153052,8.66335108 L5.73021498,8.66335108 L5.73021498,3.88636704 L6.99153052,3.88636704 C8.45332006,3.88636704 10.5499439,3.59239879 13.974708,1.43663164 L13.974708,10.8517814 Z M14.9979606,7.40173735 L14.9979606,5.15206367 C15.440674,5.34395961 15.7455616,5.7767462 15.7455616,6.27894195 C15.7497381,6.77705482 15.440674,7.20984141 14.9979606,7.40173735 Z" id="Shape"></path>
                <path d="M19.8450304,6.17647059 L18.096146,6.17647059 C17.8478702,6.17647059 17.6470588,6.37374462 17.6470588,6.61764706 C17.6470588,6.8615495 17.8478702,7.05882353 18.096146,7.05882353 L19.8450304,7.05882353 C20.0933063,7.05882353 20.2941176,6.8615495 20.2941176,6.61764706 C20.2941176,6.37015782 20.0933063,6.17647059 19.8450304,6.17647059 Z" id="Path"></path>
                <path d="M17.6773974,4.97150131 C17.7483559,5.17003444 17.9201501,5.29411765 18.1031484,5.29411765 C18.1591682,5.29411765 18.2151881,5.28170933 18.271208,5.26102879 L20.0040891,4.50825733 C20.2393725,4.40485466 20.3551469,4.11119106 20.2617805,3.85061633 C20.168414,3.59004159 19.9032533,3.46182227 19.6679699,3.56522495 L17.9350888,4.31799641 C17.70354,4.41726298 17.5877656,4.71092657 17.6773974,4.97150131 Z" id="Path"></path>
                <path d="M20.0043079,7.84740817 L18.2727342,7.09463671 C18.0376282,6.99123404 17.7726676,7.11945335 17.6793716,7.38002809 C17.5860756,7.64060283 17.7017626,7.93426642 17.9368686,8.03766909 L19.6684423,8.79044056 C19.7244199,8.8152572 19.7803975,8.82352941 19.8363751,8.82352941 C20.0192353,8.82352941 20.1908999,8.6994462 20.2618049,8.50091307 C20.3551009,8.24447444 20.2394138,7.95081085 20.0043079,7.84740817 Z" id="Path"></path>
            </g>
        </g>
    </g>
</svg>